<?xml version="1.0" encoding="UTF-8" standalone="no"?>
<!-- Created with Inkscape (http://www.inkscape.org/) -->

<svg
   width="72.284836mm"
   height="67.350349mm"
   viewBox="0 0 72.284836 67.350349"
   version="1.1"
   id="svg1"
   inkscape:version="1.4 (86a8ad7, 2024-10-11)"
   sodipodi:docname="exit.svg"
   inkscape:export-filename="E:\Projects\Godot\Flappy Seagull\Assets\sprites\exit.svg"
   inkscape:export-xdpi="96"
   inkscape:export-ydpi="96"
   xmlns:inkscape="http://www.inkscape.org/namespaces/inkscape"
   xmlns:sodipodi="http://sodipodi.sourceforge.net/DTD/sodipodi-0.dtd"
   xmlns="http://www.w3.org/2000/svg"
   xmlns:svg="http://www.w3.org/2000/svg">
  <sodipodi:namedview
     id="namedview1"
     pagecolor="#505050"
     bordercolor="#ffffff"
     borderopacity="1"
     inkscape:showpageshadow="0"
     inkscape:pageopacity="0"
     inkscape:pagecheckerboard="1"
     inkscape:deskcolor="#505050"
     inkscape:document-units="mm"
     inkscape:zoom="1.3950758"
     inkscape:cx="-58.77817"
     inkscape:cy="215.40049"
     inkscape:window-width="1920"
     inkscape:window-height="1001"
     inkscape:window-x="-9"
     inkscape:window-y="-9"
     inkscape:window-maximized="1"
     inkscape:current-layer="layer1">
    <inkscape:page
       x="-1.9452112e-15"
       y="0"
       width="72.284828"
       height="67.350349"
       id="page2"
       margin="0"
       bleed="0" />
  </sodipodi:namedview>
  <defs
     id="defs1" />
  <g
     inkscape:label="Layer 1"
     inkscape:groupmode="layer"
     id="layer1"
     transform="translate(-0.54352263,-0.54339851)">
    <path
       id="rect1"
       style="fill:none;fill-opacity:1;stroke:#ffffff;stroke-width:4;stroke-linecap:butt;stroke-dasharray:none;stroke-opacity:1;paint-order:stroke fill markers"
       d="M 43.973618,42.559798 V 65.89375 H 2.5435226 V 2.5433985 H 43.973618 V 23.714811"
       sodipodi:nodetypes="cccccc" />
    <path
       id="path2"
       style="fill:#ffffff;fill-opacity:1;stroke:none;stroke-width:0.999999;stroke-opacity:1;paint-order:markers fill stroke"
       d="m 24.262261,20.0565 h -4.442104 v 15.267208 h 4.442104 z m -4.442104,10.825103 v 4.442106 H 38.121853 V 30.881603 Z M 63.334589,20.62066 c -1.180496,0.895879 -2.360991,1.791757 -3.541487,2.687636 2.480257,3.262524 4.96051,6.525051 7.44077,9.787573 -2.29846,2.986649 -4.596927,5.973293 -6.895391,8.959939 1.174707,0.90224 2.349414,1.804481 3.524121,2.706721 2.98858,-3.883684 5.97717,-7.767362 8.96575,-11.651046 -3.16459,-4.163606 -6.32918,-8.327212 -9.493763,-12.490823 z M 35.277024,30.881908 c 0,1.4806 0,2.961201 0,4.441801 10.650516,0 21.301032,0 31.951548,0 0,-1.4806 0,-2.961201 0,-4.441801 -10.650516,0 -21.301032,0 -31.951548,0 z" />
  </g>
</svg>
