<?xml version="1.0" encoding="UTF-8" standalone="no"?>
<svg
   version="1.1"
   width="256"
   height="256"
   viewBox="0 0 256 256"
   xml:space="preserve"
   id="svg2"
   sodipodi:docname="settings_icon.svg"
   inkscape:export-filename="settings_icon.svg"
   inkscape:export-xdpi="96"
   inkscape:export-ydpi="96"
   xmlns:inkscape="http://www.inkscape.org/namespaces/inkscape"
   xmlns:sodipodi="http://sodipodi.sourceforge.net/DTD/sodipodi-0.dtd"
   xmlns:xlink="http://www.w3.org/1999/xlink"
   xmlns="http://www.w3.org/2000/svg"
   xmlns:svg="http://www.w3.org/2000/svg"><defs
   id="defs2"><linearGradient
     id="linearGradient3"
     inkscape:collect="always"><stop
       style="stop-color:#000000;stop-opacity:0;"
       offset="0.04804805"
       id="stop6" /><stop
       style="stop-color:#000000;stop-opacity:0.1;"
       offset="0.24309978"
       id="stop5" /><stop
       style="stop-color:#000000;stop-opacity:0.15000001;"
       offset="0.53609341"
       id="stop3" /><stop
       style="stop-color:#000000;stop-opacity:0.05;"
       offset="0.69999999"
       id="stop7" /><stop
       style="stop-color:#000000;stop-opacity:0;"
       offset="1"
       id="stop4" /></linearGradient><inkscape:path-effect
     effect="fillet_chamfer"
     id="path-effect3"
     is_visible="true"
     lpeversion="1"
     nodesatellites_param="F,0,1,1,0,0,0,1 @ F,0,1,1,0,0,0,1 @ F,0,1,1,0,0,0,1 @ F,0,1,1,0,0,0,1"
     radius="0"
     unit="px"
     method="auto"
     mode="F"
     chamfer_steps="1"
     flexible="false"
     use_knot_distance="true"
     apply_no_radius="true"
     apply_with_radius="true"
     only_selected="false"
     hide_knots="false" /><radialGradient
     inkscape:collect="always"
     xlink:href="#linearGradient3"
     id="radialGradient4"
     cx="128"
     cy="128"
     fx="128"
     fy="128"
     r="128"
     gradientUnits="userSpaceOnUse" /></defs><sodipodi:namedview
   id="namedview2"
   pagecolor="#505050"
   bordercolor="#ffffff"
   borderopacity="1"
   inkscape:showpageshadow="0"
   inkscape:pageopacity="0"
   inkscape:pagecheckerboard="1"
   inkscape:deskcolor="#505050"
   inkscape:zoom="3.1294999"
   inkscape:cx="163.28487"
   inkscape:cy="156.41477"
   inkscape:window-width="2560"
   inkscape:window-height="1351"
   inkscape:window-x="-9"
   inkscape:window-y="-9"
   inkscape:window-maximized="1"
   inkscape:current-layer="svg2"><inkscape:page
     x="0"
     y="0"
     width="256"
     height="256"
     id="page1"
     margin="0"
     bleed="0" /></sodipodi:namedview>
<path
   id="rect2"
   d="M 0,0 H 256 V 256 H 0 Z"
   style="opacity:1;fill:url(#radialGradient4);fill-opacity:1;stroke-width:15;stroke-linecap:round;stroke-linejoin:bevel"
   inkscape:path-effect="#path-effect3"
   inkscape:original-d="M 0,0 H 256 V 256 H 0 Z" /><path
   d="m 198.92711,104.51111 c -9.95206,-0.20205 -15.22996,-11.133291 -17.06162,-19.519662 1.34835,-7.679758 7.20859,-17.161108 -0.92902,-23.521451 -6.70671,-4.486575 -13.89899,-8.272009 -20.89993,-12.297938 -8.65104,-4.354762 -15.87479,3.176146 -20.47673,9.495086 -8.50811,4.280529 -22.75454,4.703568 -27.76479,-5.173701 -4.53373,-6.728302 -14.168103,-6.806084 -20.148348,-2.078651 -5.903502,3.703683 -12.455627,6.508515 -17.814568,10.972266 -7.788333,7.191275 0.317839,16.217254 -0.130786,24.28588 -2.666064,9.722725 -9.788151,19.193381 -20.855114,18.432961 -7.101185,1.93915 -10.106636,9.59466 -9.295601,16.35022 0.252182,6.81015 -0.586658,13.73167 0.594809,20.45033 2.339537,10.44139 14.326924,7.69821 21.046971,12.36424 5.676166,6.43972 12.06127,16.2689 6.293516,24.67466 -3.559674,7.29064 1.190479,15.67243 8.274245,18.48827 6.159182,3.26083 11.863767,7.53391 18.409357,9.94209 10.129219,3.15158 13.887379,-8.40005 21.113229,-12.03375 9.75128,-2.54607 21.50315,-1.10982 26.37565,8.84993 5.22877,5.18081 13.36041,3.95326 18.80435,-0.12595 5.77144,-3.62296 12.1834,-6.35858 17.41236,-10.73875 7.78872,-7.1914 -0.31767,-16.21858 0.12935,-24.28737 2.66798,-9.72216 9.7891,-19.1937 20.85675,-18.43296 7.10118,-1.93915 10.10664,-9.59466 9.2956,-16.35022 -0.25214,-6.8105 0.58659,-13.73234 -0.59481,-20.45137 -1.61923,-5.42715 -6.96561,-9.37724 -12.63487,-9.29416 z m -52.34468,55.78693 c -17.06797,10.44945 -41.61985,3.87152 -51.175717,-13.7128 -10.449454,-17.06797 -3.871522,-41.61985 13.712797,-51.175717 17.06836,-10.446785 41.61959,-3.871453 51.17572,13.712797 10.42164,17.27623 3.9617,41.41833 -13.7128,51.17572 z"
   style="fill:#ededed;fill-rule:nonzero;stroke:#000000;stroke-width:6;stroke-linecap:butt;stroke-linejoin:miter;stroke-miterlimit:10;stroke-dasharray:none;stroke-opacity:1;paint-order:markers fill stroke"
   stroke-linecap="round"
   id="path2" />
</svg>
